<svg xmlns="http://www.w3.org/2000/svg" viewBox="0 0 179.57 41.24"><defs><style>.cls-1{fill:#3fc;fill-rule:evenodd;}</style></defs><g id="Layer_2" data-name="Layer 2"><g id="Layer_1-2" data-name="Layer 1"><path class="cls-1" d="M28.06,9.31a11,11,0,0,1-9.95,15.8,11.44,11.44,0,0,1-1.93-.17A11,11,0,0,1,18.08,3,11.26,11.26,0,0,1,20,3.19,11,11,0,0,1,26,6.3a5.48,5.48,0,0,0,2.11-.72A5.9,5.9,0,0,0,29.34,4.5a3.61,3.61,0,0,1,0-1.35A3.8,3.8,0,0,1,33.08,0a3.68,3.68,0,0,1,.66.06,3.81,3.81,0,0,1-.65,7.56,3.71,3.71,0,0,1-.67-.06,3.77,3.77,0,0,1-1.69-.76,7.51,7.51,0,0,0-1.59,1.08A5.56,5.56,0,0,0,28.06,9.31Zm-10.12.37a4.47,4.47,0,0,0-.77,8.87,5.14,5.14,0,0,0,.78.07,4.47,4.47,0,0,0,.77-8.88A5,5,0,0,0,17.94,9.68Z"/><path class="cls-1" d="M89.61,41.24a15.51,15.51,0,0,1-7.39-1.74,1.48,1.48,0,0,1-.59-1.9l.94-2.1a1.67,1.67,0,0,1,1.55-1,1.94,1.94,0,0,1,.83.19,9.27,9.27,0,0,0,4.26,1,4.65,4.65,0,0,0,3-.94,3.6,3.6,0,0,0,1.28-2.88v-.12l-.13-.05h-.14l0,0a6.33,6.33,0,0,1-4.34,1.52c-4.88,0-8.56-4-8.56-9.3s3.68-9.31,8.56-9.31A6.43,6.43,0,0,1,93,16.08a.27.27,0,0,0,.2.07l.14,0a.3.3,0,0,0,.13-.09l0-.05v-.07a.74.74,0,0,1,.74-.74H98a1.57,1.57,0,0,1,1.58,1.57V31.6a9.47,9.47,0,0,1-2.74,7.08A10.21,10.21,0,0,1,89.61,41.24Zm.53-20.81A3.37,3.37,0,0,0,86.65,24a3.41,3.41,0,0,0,3.49,3.56A3.31,3.31,0,0,0,93.51,24,3.31,3.31,0,0,0,90.14,20.43Zm62.51,13.63a6.62,6.62,0,0,1-4.31-1.42.3.3,0,0,0-.21-.07l-.15,0a.3.3,0,0,0-.14.1l0,0,0,.08a.75.75,0,0,1-.75.76h-3.71A1.58,1.58,0,0,1,141.75,32V11.24a1.58,1.58,0,0,1,1.58-1.58h3.07A1.58,1.58,0,0,1,148,11.24V16l.05.09.08,0a.25.25,0,0,0,.12,0h.05l.11-.05a6.54,6.54,0,0,1,4.26-1.42c4.9,0,8.6,4.16,8.6,9.68S157.55,34.06,152.65,34.06Zm-1.37-13.52a3.53,3.53,0,0,0-3.54,3.83,3.56,3.56,0,1,0,7.1,0A3.54,3.54,0,0,0,151.28,20.54Zm-23.9,13.52c-4.89,0-8.58-4.17-8.58-9.71s3.7-9.68,8.6-9.68a6.56,6.56,0,0,1,4.3,1.45.3.3,0,0,0,.21.07.4.4,0,0,0,.15,0,.28.28,0,0,0,.14-.1l0,0v-.09a.76.76,0,0,1,.76-.76h3.73a1.57,1.57,0,0,1,1.58,1.57V32a1.58,1.58,0,0,1-1.58,1.58H133a.77.77,0,0,1-.76-.76v-.06l0-.08a.38.38,0,0,0-.15-.1.4.4,0,0,0-.15,0,.3.3,0,0,0-.21.07A6.62,6.62,0,0,1,127.38,34.06Zm1.37-13.52a3.53,3.53,0,0,0-3.54,3.83,3.54,3.54,0,0,0,3.54,3.83,3.58,3.58,0,0,0,3.56-3.83A3.58,3.58,0,0,0,128.75,20.54ZM171,34a18,18,0,0,1-7.4-1.36,1.44,1.44,0,0,1-.65-1.92l.93-2.06a1.65,1.65,0,0,1,1.53-.95,1.93,1.93,0,0,1,.72.15,11.82,11.82,0,0,0,4.9,1,4.34,4.34,0,0,0,1.79-.27.73.73,0,0,0,.34-.27.61.61,0,0,0,.1-.36.38.38,0,0,0-.1-.27,1,1,0,0,0-.39-.26,9.13,9.13,0,0,0-2.1-.47l-1-.15a9.24,9.24,0,0,1-4.9-1.92,5,5,0,0,1-1.63-4,5.6,5.6,0,0,1,2.14-4.63,9.49,9.49,0,0,1,5.86-1.62,17.93,17.93,0,0,1,6.58,1.11,1.46,1.46,0,0,1,.87.78,1.52,1.52,0,0,1,.06,1.2l-.69,1.95a1.62,1.62,0,0,1-1.55,1.07,1.71,1.71,0,0,1-.55-.09,15,15,0,0,0-4.51-.88,3,3,0,0,0-1.46.26.6.6,0,0,0-.34.56.34.34,0,0,0,.12.28,1.49,1.49,0,0,0,.48.26,12.62,12.62,0,0,0,2.05.41l1.31.2a8.35,8.35,0,0,1,4.5,1.88,5,5,0,0,1,1.58,3.82,5.8,5.8,0,0,1-2.29,4.82A10.26,10.26,0,0,1,171,34ZM56.1,34c-8,0-13.8-5.67-13.8-13.48a13.39,13.39,0,0,1,3.89-9.72,14.13,14.13,0,0,1,10-3.78,13.45,13.45,0,0,1,8.72,2.88,1.39,1.39,0,0,1,.51,1,1.52,1.52,0,0,1-.47,1.16l-2.46,2.42a1.58,1.58,0,0,1-1.14.46,2,2,0,0,1-1.16-.38,7.18,7.18,0,0,0-4.29-1.3,6.53,6.53,0,0,0-4.84,2,7.54,7.54,0,0,0-1.91,5.24,7.57,7.57,0,0,0,2,5.47,6.6,6.6,0,0,0,4.75,1.91c2.78,0,4.68-1,5.65-2.91a.7.7,0,0,0-.06-.77,1,1,0,0,0-.79-.39H57.42a1.58,1.58,0,0,1-1.58-1.58V20.21a1.58,1.58,0,0,1,1.58-1.58h9.8A1.5,1.5,0,0,1,68.74,20c0,.27,0,.53,0,.79C68.76,29.5,62.39,34,56.1,34Zm48.82-.45A1.58,1.58,0,0,1,103.34,32V11.24a1.58,1.58,0,0,1,1.58-1.58h3.47A1.58,1.58,0,0,1,110,11.24V26.36a1,1,0,0,0,1,1h5.11A1.57,1.57,0,0,1,117.7,29v3a1.58,1.58,0,0,1-1.58,1.58Zm-31.85,0A1.58,1.58,0,0,1,71.49,32V18.93a1.58,1.58,0,0,1,1.58-1.58h3.09a1.58,1.58,0,0,1,1.58,1.58V32a1.58,1.58,0,0,1-1.58,1.58Zm1.52-17.81a3.68,3.68,0,1,1,3.68-3.66A3.63,3.63,0,0,1,74.59,15.78Z"/><path class="cls-1" d="M17.62,37.11A20.31,20.31,0,0,1,14,36.78,20.82,20.82,0,0,1,.78,28.63,3.94,3.94,0,0,1,0,25.7a4,4,0,0,1,3.9-3.36,4,4,0,0,1,3.17,1.6A13,13,0,0,0,15.34,29a12.47,12.47,0,0,0,2.28.2,12.89,12.89,0,0,0,4.44-.78,3.92,3.92,0,0,1,1.35-.24,3.94,3.94,0,0,1,1.35,7.64A20.66,20.66,0,0,1,17.62,37.11Z"/></g></g></svg>